<?xml version="1.0" encoding="utf-8"?>
    <!-- Generator: Adobe Illustrator 24.3.0, SVG Export Plug-In . SVG Version: 6.00 Build 0)  -->
    <!DOCTYPE svg PUBLIC "-//W3C//DTD SVG 1.1//EN" "http://www.w3.org/Graphics/SVG/1.1/DTD/svg11.dtd" [
        <!ENTITY ns_extend "http://ns.adobe.com/Extensibility/1.0/">
        <!ENTITY ns_ai "http://ns.adobe.com/AdobeIllustrator/10.0/">
        <!ENTITY ns_graphs "http://ns.adobe.com/Graphs/1.0/">
        <!ENTITY ns_vars "http://ns.adobe.com/Variables/1.0/">
        <!ENTITY ns_imrep "http://ns.adobe.com/ImageReplacement/1.0/">
        <!ENTITY ns_sfw "http://ns.adobe.com/SaveForWeb/1.0/">
        <!ENTITY ns_custom "http://ns.adobe.com/GenericCustomNamespace/1.0/">
        <!ENTITY ns_adobe_xpath "http://ns.adobe.com/XPath/1.0/">
    ]>
    <svg version="1.1" id="Layer_1" xmlns:x="&ns_extend;" xmlns:i="&ns_ai;" xmlns:graph="&ns_graphs;"
         xmlns="http://www.w3.org/2000/svg" xmlns:xlink="http://www.w3.org/1999/xlink" x="0px" y="0px" viewBox="150 100 246 140"
         style="enable-background:new 150 131 300 262;" xml:space="preserve">
    <style type="text/css">
        .st0{fill:#282D3C;}
        .st1{fill:#FFFFFF;}
        .st2{fill:#D5B26E;}
        .st3{font-family:'MyriadPro-Regular';}
        .st4{font-size:12px;}
        .st5{fill:#FFFFFF;stroke:#000000;stroke-miterlimit:10;}
    </style>
    <switch>
        <g i:extraneous="self">
            <rect x="143.6" y="98.32" class="st0" width="252" height="146.37"/>
            <g>
                <path class="st1" d="M201.07,169.52V150.9h-3.17v-0.77h11.04c1.44,0,2.63,0.12,3.55,0.38c0.93,0.25,1.73,0.77,2.4,1.56
                    c0.67,0.79,1.01,1.69,1.01,2.71c0,1.27-0.49,2.3-1.47,3.1c-0.98,0.79-2.64,1.39-4.99,1.79v0.08c1.68,0.33,3.06,0.97,4.14,1.92
                    c1.08,0.95,1.62,2.56,1.62,4.84c0,1.3,0.15,2.14,0.46,2.5c0.3,0.37,0.73,0.55,1.27,0.55c0.35,0,0.77-0.07,1.26-0.21v0.74
                    c-0.87,0.3-1.71,0.45-2.52,0.45c-1.65,0-2.82-0.46-3.5-1.38c-0.68-0.92-1.01-1.82-0.99-2.7l0.06-2.55c0-0.89-0.28-1.77-0.85-2.64
                    c-0.57-0.87-1.85-1.3-3.85-1.3h-1.88v9.57h3.17v0.77h-9.92v-0.77H201.07z M204.65,150.9v8.34h2.7c1.16,0,2.05-0.08,2.66-0.23
                    c0.61-0.15,1.1-0.56,1.46-1.22s0.55-1.7,0.55-3.13c0-1.17-0.19-2.03-0.56-2.57c-0.37-0.54-0.82-0.87-1.34-1
                    c-0.53-0.12-1.21-0.19-2.07-0.19H204.65z"/>
                <path class="st1" d="M261.03,150.9v19.85h-0.62l-13.27-19.94h-0.06v18.71h3.41v0.77h-7.17v-0.77h2.99V150.9h-3.2v-0.77h7.69
                    l9.39,14.12h0.06V150.9h-3.34v-0.77h7.15v0.77H261.03z"/>
                <path class="st1" d="M269.79,169.52V150.9h-3.14v-0.77h9.51c2.1,0,3.9,0.3,5.4,0.89c1.5,0.6,2.75,1.76,3.75,3.5
                    c1,1.74,1.5,3.62,1.5,5.66c0,2.15-0.55,4.08-1.65,5.77c-1.1,1.69-2.37,2.84-3.81,3.43c-1.44,0.6-3.19,0.89-5.25,0.89h-9.45v-0.77
                    H269.79z M273.36,150.9v18.62h2.62c1.37,0,2.49-0.13,3.36-0.38c0.87-0.25,1.58-0.8,2.15-1.64c0.57-0.84,0.95-1.91,1.15-3.2
                    c0.2-1.29,0.3-2.98,0.3-5.06c0-2.5-0.32-4.37-0.95-5.6c-0.64-1.23-1.42-2-2.34-2.29s-2.12-0.44-3.61-0.44H273.36z"/>
                <path class="st1" d="M298.98,164h-6.4l-2.06,5.51h3.73v0.77h-7.3v-0.77h2.78l7.35-19.85h0.47l7.05,19.85h2.71v0.77h-9.6v-0.77
                    h3.26L298.98,164z M292.87,163.24h5.85l-2.84-8.07h-0.06L292.87,163.24z"/>
                <path class="st1" d="M316.13,150.9v18.62h4.52c0.87,0,1.56-0.07,2.06-0.2c0.5-0.13,0.99-0.45,1.48-0.95
                    c0.49-0.5,0.86-1.1,1.13-1.79c0.27-0.69,0.55-1.65,0.85-2.89h0.71l-0.56,6.58h-16.93v-0.77h3.17V150.9h-3.17v-0.77h10.1v0.77
                    H316.13z"/>
                <path class="st1" d="M336.01,150.9v18.62h4.52c0.87,0,1.56-0.07,2.06-0.2c0.5-0.13,0.99-0.45,1.48-0.95
                    c0.49-0.5,0.86-1.1,1.13-1.79c0.27-0.69,0.55-1.65,0.85-2.89h0.71l-0.56,6.58h-16.93v-0.77h3.17V150.9h-3.17v-0.77h10.1v0.77
                    H336.01z"/>
            </g>
            <g>
                <path class="st1" d="M205.18,178.29l2.22,3.57c0.03,0.08,0.13,0.25,0.3,0.5c0.8-1.09,1.28-2.59,1.44-4.48h-1.85v-0.5h3.76v0.5
                    h-1.46c-0.13,2.05-0.67,3.67-1.61,4.87l1.54,2.16h1.41v0.49h-3.81c-0.28-0.4-0.53-0.74-0.76-1.02c-1.09,0.88-2.31,1.31-3.65,1.31
                    c-1.33,0-2.37-0.35-3.11-1.06c-0.74-0.71-1.11-1.56-1.11-2.56c0-0.94,0.33-1.78,0.99-2.53c0.66-0.75,1.6-1.31,2.82-1.69
                    c-0.73-1.25-1.09-2.21-1.09-2.87c0-0.69,0.3-1.3,0.9-1.82c0.6-0.52,1.34-0.78,2.24-0.78c0.87,0,1.63,0.21,2.26,0.63
                    c0.63,0.42,0.95,0.97,0.95,1.65c0,0.56-0.21,1.05-0.63,1.47c-0.42,0.42-1.18,0.83-2.26,1.24L205.18,178.29z M202.54,178.27
                    c-1.35,0.51-2.02,1.22-2.02,2.14c0,0.85,0.34,1.82,1.02,2.92c0.68,1.09,1.47,1.64,2.36,1.64c0.69,0,1.44-0.33,2.24-0.98
                    C204.73,181.94,203.53,180.04,202.54,178.27z M204.42,176.99c0.61-0.25,1.01-0.55,1.2-0.89s0.28-0.81,0.28-1.4
                    c0-1.21-0.51-1.81-1.52-1.81c-0.39,0-0.71,0.1-0.96,0.31c-0.25,0.21-0.38,0.47-0.38,0.79
                    C203.05,174.55,203.51,175.55,204.42,176.99z"/>
                <path class="st1" d="M253.67,172.39l0.06,3.34h-0.45c-0.63-2-1.75-3-3.35-3c-0.89,0-1.57,0.25-2.06,0.74
                    c-0.49,0.5-0.74,1.01-0.74,1.54c0,0.49,0.2,0.91,0.61,1.26s1.15,0.61,2.24,0.8c1.08,0.19,1.91,0.42,2.47,0.69
                    c0.57,0.27,1.04,0.72,1.43,1.36c0.39,0.63,0.58,1.36,0.58,2.18c0,1.26-0.41,2.31-1.22,3.15c-0.81,0.84-1.82,1.26-3.02,1.26
                    c-0.98,0-1.96-0.37-2.93-1.1l-0.89,0.81h-0.33v-3.6h0.41c0.37,1.13,0.9,1.98,1.57,2.55s1.4,0.85,2.2,0.85
                    c0.79,0,1.52-0.26,2.18-0.79c0.66-0.53,0.99-1.19,0.99-2c0-0.68-0.23-1.25-0.69-1.71c-0.46-0.46-1.2-0.78-2.23-0.96
                    s-1.82-0.38-2.37-0.61c-0.55-0.23-1.02-0.64-1.41-1.22c-0.39-0.58-0.59-1.22-0.59-1.92c0-0.97,0.34-1.84,1.03-2.6
                    c0.68-0.76,1.61-1.15,2.78-1.15c0.98,0,1.9,0.31,2.74,0.94c0.23-0.22,0.44-0.49,0.61-0.79H253.67z"/>
                <path class="st1" d="M264.2,172.39l0.06,3.34h-0.45c-0.63-2-1.75-3-3.35-3c-0.89,0-1.57,0.25-2.06,0.74
                    c-0.49,0.5-0.74,1.01-0.74,1.54c0,0.49,0.2,0.91,0.61,1.26s1.15,0.61,2.24,0.8c1.08,0.19,1.91,0.42,2.47,0.69
                    c0.57,0.27,1.04,0.72,1.43,1.36c0.39,0.63,0.58,1.36,0.58,2.18c0,1.26-0.41,2.31-1.22,3.15c-0.81,0.84-1.82,1.26-3.02,1.26
                    c-0.98,0-1.96-0.37-2.93-1.1l-0.89,0.81h-0.33v-3.6h0.41c0.37,1.13,0.9,1.98,1.57,2.55s1.4,0.85,2.2,0.85
                    c0.79,0,1.52-0.26,2.18-0.79c0.66-0.53,0.99-1.19,0.99-2c0-0.68-0.23-1.25-0.69-1.71c-0.46-0.46-1.2-0.78-2.23-0.96
                    s-1.82-0.38-2.37-0.61c-0.55-0.23-1.02-0.64-1.41-1.22c-0.39-0.58-0.59-1.22-0.59-1.92c0-0.97,0.34-1.84,1.03-2.6
                    c0.68-0.76,1.61-1.15,2.78-1.15c0.98,0,1.9,0.31,2.74,0.94c0.23-0.22,0.44-0.49,0.61-0.79H264.2z"/>
                <path class="st1" d="M272.87,185.7c-1.65,0-3.04-0.7-4.19-2.09c-1.15-1.39-1.72-2.88-1.72-4.47c0-1.91,0.6-3.53,1.81-4.88
                    s2.61-2.02,4.2-2.02c1.5,0,2.84,0.68,4.03,2.05c1.19,1.37,1.78,2.92,1.78,4.66c0,1.79-0.6,3.36-1.79,4.71
                    C275.8,185.02,274.43,185.7,272.87,185.7z M272.91,172.73c-0.7,0-1.32,0.16-1.88,0.48s-0.93,0.88-1.13,1.68
                    c-0.2,0.8-0.3,2.19-0.3,4.18c0,1.38,0.06,2.47,0.17,3.29c0.11,0.82,0.4,1.5,0.87,2.03c0.46,0.54,1.19,0.81,2.19,0.81
                    c0.61,0,1.22-0.16,1.83-0.49s1.01-0.97,1.2-1.92c0.19-0.96,0.28-2.43,0.28-4.41c0-1.8-0.12-3.04-0.35-3.72
                    c-0.23-0.68-0.6-1.18-1.11-1.48C274.17,172.88,273.58,172.73,272.91,172.73z"/>
                <path class="st1" d="M290.05,172.39v3.82h-0.41c-0.44-2.32-1.59-3.48-3.44-3.48c-0.99,0-1.72,0.39-2.17,1.18
                    c-0.46,0.79-0.68,2.44-0.68,4.97c0,2.08,0.1,3.49,0.29,4.24s0.54,1.28,1.02,1.61c0.48,0.32,1.02,0.48,1.6,0.48
                    c0.76,0,1.47-0.29,2.14-0.87c0.67-0.58,1.18-1.51,1.55-2.79h0.45l-0.15,3.92h-0.39c-0.15-0.41-0.37-0.75-0.68-1.04
                    c-1,0.84-2.03,1.26-3.08,1.26c-1.34,0-2.57-0.64-3.67-1.93c-1.11-1.29-1.66-2.86-1.66-4.72c0-1.9,0.54-3.51,1.63-4.83
                    c1.09-1.32,2.35-1.98,3.78-1.98c1.1,0,2.07,0.4,2.91,1.2c0.25-0.4,0.43-0.74,0.56-1.05H290.05z"/>
                <path class="st1" d="M294.31,184.91v-11.88h-2.08v-0.49h6.44v0.49h-2.1v11.88h2.1v0.49h-6.44v-0.49H294.31z"/>
                <path class="st1" d="M307.74,181.39h-4.04l-1.3,3.52h2.35v0.49h-4.61v-0.49h1.76l4.64-12.67h0.29l4.45,12.67h1.71v0.49h-6.07
                    v-0.49h2.06L307.74,181.39z M303.88,180.9h3.69l-1.79-5.15h-0.04L303.88,180.9z"/>
                <path class="st1" d="M313.13,172.54h10.85l0.33,4.37h-0.48c-0.3-1.46-0.69-2.48-1.18-3.04c-0.49-0.56-1.13-0.84-1.93-0.84h-1.04
                    v11.88h2.28v0.49h-6.81v-0.49h2.28v-11.88h-1.04c-0.8,0-1.44,0.28-1.93,0.84c-0.49,0.56-0.88,1.58-1.18,3.04h-0.48L313.13,172.54
                    z"/>
                <path class="st1" d="M330.15,173.03v5.52h1.15c0.4,0,0.75-0.04,1.03-0.12c0.28-0.08,0.54-0.3,0.76-0.65
                    c0.22-0.35,0.35-0.9,0.38-1.65h0.49v5.45h-0.49c-0.05-1.04-0.25-1.72-0.59-2.05c-0.34-0.33-0.87-0.49-1.58-0.49h-1.15v5.88h2.59
                    c1.47,0,2.49-0.31,3.05-0.94s0.9-1.58,1.01-2.88h0.48l-0.12,4.31h-11.29v-0.49h2.02v-11.88h-2.02v-0.49h10.82l0.22,3.43h-0.48
                    c-0.16-1.04-0.5-1.79-1.02-2.25s-1.37-0.69-2.56-0.69H330.15z"/>
                <path class="st1" d="M347.15,172.39l0.06,3.34h-0.45c-0.63-2-1.75-3-3.35-3c-0.89,0-1.57,0.25-2.06,0.74
                    c-0.49,0.5-0.74,1.01-0.74,1.54c0,0.49,0.2,0.91,0.61,1.26s1.15,0.61,2.24,0.8c1.08,0.19,1.91,0.42,2.47,0.69
                    c0.57,0.27,1.04,0.72,1.43,1.36c0.39,0.63,0.58,1.36,0.58,2.18c0,1.26-0.41,2.31-1.22,3.15c-0.81,0.84-1.82,1.26-3.02,1.26
                    c-0.98,0-1.96-0.37-2.93-1.1l-0.89,0.81h-0.33v-3.6h0.41c0.37,1.13,0.9,1.98,1.57,2.55s1.4,0.85,2.2,0.85
                    c0.79,0,1.52-0.26,2.18-0.79c0.66-0.53,0.99-1.19,0.99-2c0-0.68-0.23-1.25-0.69-1.71c-0.46-0.46-1.2-0.78-2.23-0.96
                    s-1.82-0.38-2.37-0.61c-0.55-0.23-1.02-0.64-1.41-1.22c-0.39-0.58-0.59-1.22-0.59-1.92c0-0.97,0.34-1.84,1.03-2.6
                    c0.68-0.76,1.61-1.15,2.78-1.15c0.98,0,1.9,0.31,2.74,0.94c0.23-0.22,0.44-0.49,0.61-0.79H347.15z"/>
            </g>
            <g>
                <path class="st2" d="M233.18,178.17h-12.54l-4.03,10.8h7.3v1.5H209.6v-1.5h5.45l14.39-38.89h0.91l13.81,38.89h5.3v1.5h-18.81
                    v-1.5h6.39L233.18,178.17z M221.2,176.67h11.45l-5.56-15.81h-0.12L221.2,176.67z"/>
            </g>
            <g>
                <path class="st1" d="M221.57,198.99c0,0.05,0,0.1-0.01,0.13s-0.01,0.06-0.03,0.09s-0.03,0.04-0.04,0.05s-0.04,0.02-0.06,0.02
                    h-2.23c-0.06,0-0.12-0.02-0.17-0.06s-0.08-0.11-0.08-0.21v-4.68c0-0.02,0.01-0.04,0.02-0.05s0.03-0.03,0.05-0.04
                    s0.06-0.02,0.11-0.02s0.1-0.01,0.16-0.01c0.06,0,0.12,0,0.16,0.01s0.08,0.01,0.1,0.02s0.04,0.02,0.05,0.04s0.02,0.03,0.02,0.05
                    v4.37h1.81c0.02,0,0.04,0.01,0.06,0.02s0.03,0.03,0.04,0.05s0.02,0.05,0.03,0.09S221.57,198.94,221.57,198.99z"/>
                <path class="st1" d="M227.1,199.05c0.02,0.06,0.03,0.1,0.03,0.14s-0.01,0.06-0.03,0.08s-0.06,0.03-0.1,0.04s-0.11,0.01-0.19,0.01
                    s-0.15,0-0.19-0.01s-0.08-0.01-0.11-0.02s-0.04-0.02-0.05-0.04s-0.02-0.04-0.03-0.06l-0.43-1.23h-2.1l-0.41,1.21
                    c-0.01,0.02-0.02,0.04-0.03,0.06s-0.03,0.03-0.06,0.04s-0.06,0.02-0.11,0.03s-0.1,0.01-0.18,0.01c-0.08,0-0.14,0-0.19-0.01
                    s-0.08-0.02-0.1-0.04s-0.03-0.04-0.03-0.08s0.01-0.08,0.03-0.14l1.7-4.7c0.01-0.03,0.02-0.05,0.04-0.07s0.04-0.03,0.07-0.04
                    s0.07-0.02,0.12-0.02s0.12-0.01,0.19-0.01c0.08,0,0.15,0,0.21,0.01s0.1,0.01,0.13,0.02s0.06,0.03,0.08,0.04s0.03,0.04,0.04,0.07
                    L227.1,199.05z M224.92,194.9L224.92,194.9l-0.88,2.52h1.76L224.92,194.9z"/>
                <path class="st1" d="M233.21,199.14c-0.01,0.04-0.03,0.07-0.05,0.09s-0.05,0.04-0.09,0.05s-0.08,0.02-0.13,0.03
                    s-0.12,0.01-0.2,0.01c-0.08,0-0.15,0-0.21-0.01s-0.1-0.01-0.14-0.03s-0.06-0.03-0.08-0.05s-0.03-0.05-0.04-0.09l-1.06-3.82h-0.01
                    l-0.98,3.82c-0.01,0.04-0.02,0.07-0.04,0.09s-0.04,0.04-0.08,0.05s-0.08,0.02-0.13,0.03s-0.12,0.01-0.21,0.01
                    c-0.09,0-0.16,0-0.21-0.01s-0.1-0.01-0.14-0.03s-0.06-0.03-0.08-0.05s-0.03-0.05-0.04-0.09l-1.34-4.67
                    c-0.02-0.06-0.02-0.11-0.03-0.14s0.01-0.06,0.03-0.08s0.06-0.03,0.11-0.04s0.12-0.01,0.2-0.01c0.08,0,0.14,0,0.19,0.01
                    s0.08,0.01,0.11,0.02s0.04,0.02,0.05,0.04s0.02,0.04,0.02,0.07l1.14,4.23h0l1.08-4.23c0.01-0.03,0.02-0.05,0.03-0.07
                    s0.03-0.03,0.06-0.04s0.06-0.02,0.11-0.02s0.11-0.01,0.19-0.01c0.07,0,0.13,0,0.17,0.01s0.08,0.01,0.1,0.02s0.04,0.03,0.06,0.04
                    s0.02,0.04,0.03,0.07l1.16,4.23h0.01l1.11-4.23c0.01-0.03,0.02-0.05,0.02-0.07s0.02-0.03,0.05-0.04s0.06-0.02,0.11-0.02
                    s0.11-0.01,0.18-0.01c0.08,0,0.14,0,0.19,0.01s0.08,0.02,0.1,0.04s0.03,0.04,0.03,0.08s-0.01,0.08-0.02,0.14L233.21,199.14z"/>
                <path class="st1" d="M238.03,197.32v1.86c0,0.02-0.01,0.04-0.02,0.05s-0.03,0.03-0.05,0.04s-0.06,0.02-0.1,0.02
                    s-0.1,0.01-0.16,0.01c-0.06,0-0.12,0-0.16-0.01c-0.04-0.01-0.08-0.01-0.1-0.02s-0.05-0.02-0.06-0.04
                    c-0.01-0.02-0.02-0.03-0.02-0.05v-1.86l-1.43-2.85c-0.03-0.06-0.05-0.11-0.05-0.14s0-0.06,0.02-0.08s0.05-0.03,0.11-0.04
                    s0.12-0.01,0.21-0.01c0.08,0,0.14,0,0.19,0.01s0.09,0.01,0.12,0.02s0.05,0.02,0.06,0.04s0.03,0.04,0.04,0.06l0.7,1.45
                    c0.06,0.14,0.13,0.28,0.19,0.43c0.06,0.15,0.13,0.3,0.2,0.46h0.01c0.06-0.15,0.12-0.3,0.18-0.44c0.06-0.15,0.13-0.29,0.19-0.44
                    l0.7-1.46c0.01-0.03,0.02-0.05,0.03-0.07s0.03-0.03,0.06-0.04s0.06-0.02,0.1-0.02s0.1-0.01,0.17-0.01c0.09,0,0.17,0,0.22,0.01
                    s0.09,0.02,0.11,0.04s0.03,0.04,0.02,0.08s-0.02,0.08-0.05,0.14L238.03,197.32z"/>
                <path class="st1" d="M243.85,199.01c0,0.05,0,0.09-0.01,0.12s-0.01,0.06-0.03,0.09s-0.03,0.04-0.04,0.05s-0.04,0.02-0.06,0.02
                    h-2.43c-0.06,0-0.12-0.02-0.17-0.06s-0.08-0.11-0.08-0.21v-4.51c0-0.1,0.03-0.17,0.08-0.21s0.11-0.06,0.17-0.06h2.4
                    c0.02,0,0.04,0.01,0.06,0.02s0.03,0.03,0.04,0.05s0.02,0.05,0.03,0.09s0.01,0.08,0.01,0.13c0,0.05,0,0.09-0.01,0.12
                    s-0.02,0.06-0.03,0.09s-0.02,0.04-0.04,0.05s-0.04,0.02-0.06,0.02h-1.98v1.59h1.7c0.02,0,0.04,0.01,0.06,0.02
                    s0.03,0.03,0.04,0.05s0.02,0.05,0.03,0.09s0.01,0.08,0.01,0.13c0,0.05,0,0.09-0.01,0.12s-0.01,0.06-0.03,0.08
                    s-0.03,0.04-0.04,0.04s-0.04,0.01-0.06,0.01h-1.7v1.81h2c0.02,0,0.04,0.01,0.06,0.02s0.03,0.03,0.04,0.05s0.02,0.05,0.03,0.09
                    S243.85,198.96,243.85,199.01z"/>
                <path class="st1" d="M248.91,199.19c0,0.02,0,0.04-0.01,0.05s-0.02,0.03-0.05,0.04s-0.06,0.02-0.11,0.02s-0.11,0.01-0.19,0.01
                    c-0.07,0-0.12,0-0.17-0.01s-0.08-0.01-0.1-0.03s-0.05-0.03-0.06-0.05s-0.03-0.05-0.04-0.08l-0.46-1.19
                    c-0.05-0.14-0.11-0.26-0.17-0.37s-0.13-0.21-0.21-0.29s-0.18-0.15-0.29-0.19s-0.24-0.07-0.39-0.07h-0.45v2.15
                    c0,0.02-0.01,0.04-0.02,0.05s-0.03,0.03-0.05,0.04s-0.06,0.02-0.1,0.02s-0.1,0.01-0.16,0.01s-0.12,0-0.16-0.01
                    s-0.08-0.01-0.1-0.02s-0.04-0.02-0.05-0.04s-0.02-0.03-0.02-0.05v-4.68c0-0.1,0.03-0.17,0.08-0.21s0.11-0.06,0.17-0.06h1.07
                    c0.13,0,0.23,0,0.32,0.01s0.16,0.01,0.23,0.02c0.2,0.03,0.37,0.09,0.52,0.16s0.28,0.17,0.38,0.28s0.18,0.24,0.23,0.38
                    s0.08,0.3,0.08,0.48c0,0.17-0.02,0.32-0.07,0.46s-0.11,0.25-0.2,0.36s-0.19,0.19-0.31,0.27s-0.25,0.14-0.4,0.19
                    c0.08,0.04,0.16,0.08,0.23,0.14s0.13,0.12,0.19,0.2s0.11,0.17,0.17,0.27s0.1,0.22,0.16,0.34l0.45,1.11
                    c0.04,0.09,0.06,0.16,0.07,0.2S248.91,199.16,248.91,199.19z M247.9,195.63c0-0.2-0.04-0.37-0.13-0.5s-0.24-0.23-0.45-0.29
                    c-0.06-0.02-0.14-0.03-0.22-0.04s-0.19-0.01-0.32-0.01h-0.57v1.7h0.66c0.18,0,0.33-0.02,0.46-0.06s0.24-0.1,0.32-0.18
                    s0.15-0.17,0.19-0.27S247.9,195.76,247.9,195.63z"/>
                <path class="st1" d="M253.4,197.87c0,0.24-0.04,0.45-0.13,0.63s-0.21,0.34-0.36,0.47s-0.34,0.23-0.55,0.29s-0.44,0.1-0.68,0.1
                    c-0.17,0-0.33-0.01-0.47-0.04s-0.27-0.06-0.39-0.11s-0.21-0.08-0.29-0.13s-0.13-0.08-0.16-0.11s-0.05-0.07-0.07-0.12
                    s-0.02-0.11-0.02-0.19c0-0.06,0-0.1,0.01-0.14s0.01-0.07,0.02-0.09s0.02-0.04,0.04-0.05s0.03-0.01,0.05-0.01
                    c0.04,0,0.09,0.02,0.15,0.07s0.15,0.09,0.26,0.14s0.23,0.1,0.38,0.15s0.32,0.07,0.51,0.07c0.15,0,0.28-0.02,0.4-0.06
                    s0.23-0.09,0.31-0.17s0.15-0.16,0.2-0.26s0.07-0.22,0.07-0.36c0-0.14-0.03-0.27-0.1-0.37s-0.15-0.19-0.26-0.27
                    s-0.23-0.15-0.37-0.21s-0.28-0.13-0.42-0.2s-0.28-0.14-0.42-0.22s-0.26-0.18-0.36-0.29s-0.19-0.24-0.26-0.38s-0.1-0.32-0.1-0.53
                    c0-0.21,0.04-0.4,0.12-0.56s0.18-0.3,0.32-0.42s0.3-0.2,0.49-0.26s0.39-0.09,0.61-0.09c0.11,0,0.22,0.01,0.34,0.03
                    s0.22,0.05,0.32,0.08s0.19,0.07,0.27,0.11s0.13,0.07,0.15,0.1s0.04,0.04,0.05,0.06s0.01,0.03,0.02,0.05s0.01,0.05,0.01,0.08
                    s0,0.07,0,0.12c0,0.05,0,0.09-0.01,0.12s-0.01,0.07-0.02,0.09s-0.02,0.04-0.03,0.05s-0.03,0.02-0.05,0.02
                    c-0.03,0-0.07-0.02-0.13-0.05s-0.14-0.08-0.22-0.12s-0.19-0.09-0.31-0.12s-0.26-0.06-0.41-0.06c-0.14,0-0.26,0.02-0.37,0.06
                    s-0.19,0.09-0.26,0.15s-0.12,0.14-0.15,0.22s-0.05,0.18-0.05,0.27c0,0.14,0.03,0.26,0.1,0.36s0.15,0.19,0.26,0.27
                    s0.23,0.15,0.37,0.21s0.28,0.13,0.42,0.2s0.28,0.14,0.42,0.22s0.26,0.17,0.37,0.28s0.2,0.24,0.26,0.38S253.4,197.67,253.4,197.87
                    z"/>
                <path class="st1" d="M257.12,197.96c0-0.14,0.02-0.28,0.06-0.41s0.1-0.25,0.18-0.38s0.19-0.24,0.33-0.35s0.3-0.23,0.49-0.34
                    c-0.1-0.14-0.19-0.27-0.27-0.38s-0.14-0.22-0.18-0.32s-0.08-0.19-0.1-0.28s-0.03-0.18-0.03-0.27c0-0.16,0.03-0.32,0.08-0.46
                    s0.14-0.28,0.26-0.39s0.28-0.2,0.47-0.27s0.42-0.1,0.69-0.1c0.23,0,0.43,0.02,0.6,0.07s0.31,0.12,0.42,0.21s0.19,0.2,0.25,0.33
                    s0.08,0.27,0.08,0.43c0,0.15-0.02,0.29-0.07,0.42s-0.13,0.25-0.24,0.37s-0.25,0.24-0.42,0.36s-0.38,0.24-0.62,0.37
                    c0.09,0.11,0.19,0.22,0.29,0.33s0.21,0.23,0.33,0.35s0.23,0.23,0.35,0.35s0.23,0.22,0.35,0.33c0.05-0.07,0.1-0.15,0.14-0.24
                    s0.08-0.19,0.11-0.29s0.05-0.2,0.07-0.31s0.02-0.21,0.02-0.32v-0.14c0-0.03,0-0.05,0.01-0.06s0.02-0.03,0.04-0.04
                    s0.05-0.02,0.09-0.03s0.09-0.01,0.16-0.01c0.06,0,0.11,0,0.15,0s0.07,0.01,0.1,0.02s0.04,0.02,0.06,0.04s0.02,0.05,0.02,0.08v0.1
                    c0,0.15-0.01,0.29-0.04,0.43s-0.06,0.28-0.1,0.41s-0.1,0.26-0.16,0.38s-0.13,0.24-0.21,0.34c0.12,0.09,0.22,0.17,0.31,0.23
                    s0.16,0.11,0.22,0.15s0.11,0.07,0.15,0.08s0.07,0.02,0.1,0.02s0.05,0,0.07,0s0.04,0,0.06,0.01s0.03,0.03,0.03,0.06
                    s0.01,0.08,0.01,0.14s0,0.12,0,0.16s-0.01,0.07-0.01,0.09s-0.02,0.04-0.03,0.05s-0.04,0.02-0.09,0.04s-0.1,0.02-0.16,0.02
                    c-0.05,0-0.11-0.01-0.17-0.03s-0.14-0.05-0.22-0.1s-0.18-0.11-0.29-0.19s-0.24-0.18-0.39-0.3c-0.11,0.09-0.22,0.17-0.35,0.25
                    s-0.25,0.14-0.39,0.19s-0.28,0.1-0.43,0.12s-0.31,0.04-0.49,0.04c-0.16,0-0.32-0.01-0.47-0.04s-0.28-0.07-0.41-0.12
                    s-0.24-0.12-0.34-0.2s-0.18-0.17-0.25-0.28s-0.12-0.22-0.16-0.35S257.12,198.1,257.12,197.96z M257.82,197.89
                    c0,0.14,0.02,0.26,0.07,0.37s0.11,0.21,0.2,0.29s0.2,0.15,0.33,0.19s0.29,0.07,0.46,0.07c0.11,0,0.21-0.01,0.31-0.03
                    s0.2-0.05,0.29-0.09s0.18-0.08,0.26-0.14s0.16-0.11,0.23-0.17c-0.14-0.12-0.27-0.24-0.4-0.37s-0.26-0.25-0.39-0.38
                    s-0.25-0.25-0.36-0.38s-0.22-0.25-0.32-0.37c-0.13,0.08-0.24,0.17-0.33,0.25s-0.16,0.16-0.21,0.25s-0.09,0.16-0.12,0.25
                    S257.82,197.8,257.82,197.89z M258.27,195.17c0,0.07,0.01,0.14,0.03,0.21s0.05,0.15,0.09,0.23s0.09,0.16,0.15,0.26
                    s0.13,0.19,0.21,0.3c0.19-0.11,0.35-0.21,0.48-0.29s0.23-0.18,0.31-0.26s0.13-0.17,0.17-0.25s0.05-0.17,0.05-0.27
                    c0-0.08-0.01-0.15-0.04-0.22s-0.07-0.13-0.13-0.18s-0.14-0.1-0.23-0.13s-0.2-0.05-0.33-0.05c-0.14,0-0.25,0.02-0.35,0.05
                    s-0.17,0.08-0.23,0.14s-0.11,0.13-0.13,0.21S258.27,195.09,258.27,195.17z"/>
                <path class="st1" d="M269.21,198.57c0,0.04,0,0.08,0,0.11s-0.01,0.06-0.01,0.08s-0.02,0.04-0.03,0.06s-0.03,0.04-0.05,0.07
                    s-0.08,0.07-0.16,0.12s-0.19,0.11-0.31,0.16s-0.27,0.09-0.43,0.13s-0.34,0.05-0.53,0.05c-0.33,0-0.62-0.05-0.89-0.16
                    s-0.49-0.27-0.68-0.48s-0.33-0.48-0.43-0.79s-0.15-0.68-0.15-1.08c0-0.42,0.05-0.79,0.16-1.12s0.26-0.61,0.46-0.83
                    s0.43-0.4,0.7-0.52s0.57-0.18,0.9-0.18c0.15,0,0.29,0.01,0.43,0.04s0.27,0.06,0.38,0.1s0.22,0.09,0.31,0.14s0.15,0.1,0.19,0.13
                    s0.06,0.06,0.07,0.08s0.02,0.04,0.03,0.06s0.01,0.05,0.02,0.09s0.01,0.07,0.01,0.12c0,0.05,0,0.1-0.01,0.13s-0.01,0.07-0.02,0.09
                    c-0.01,0.02-0.02,0.04-0.04,0.05c-0.01,0.01-0.03,0.02-0.05,0.02c-0.04,0-0.09-0.03-0.15-0.08s-0.15-0.11-0.25-0.17
                    s-0.23-0.12-0.38-0.17s-0.33-0.08-0.53-0.08c-0.23,0-0.43,0.04-0.61,0.13s-0.34,0.22-0.47,0.4s-0.23,0.39-0.3,0.64
                    c-0.07,0.25-0.11,0.54-0.11,0.86c0,0.32,0.03,0.6,0.1,0.85s0.17,0.45,0.3,0.62c0.13,0.17,0.29,0.29,0.48,0.38s0.4,0.13,0.64,0.13
                    c0.2,0,0.38-0.02,0.53-0.07s0.28-0.1,0.38-0.17s0.19-0.12,0.26-0.17s0.12-0.07,0.16-0.07c0.02,0,0.03,0,0.05,0.01
                    c0.01,0.01,0.02,0.02,0.03,0.04s0.01,0.05,0.02,0.09S269.21,198.51,269.21,198.57z"/>
                <path class="st1" d="M275.04,196.7c0,0.41-0.05,0.78-0.14,1.11s-0.24,0.61-0.43,0.84s-0.43,0.41-0.72,0.53s-0.63,0.19-1.01,0.19
                    c-0.38,0-0.71-0.06-0.99-0.17s-0.51-0.28-0.69-0.49s-0.32-0.48-0.4-0.8s-0.13-0.69-0.13-1.11c0-0.4,0.05-0.76,0.14-1.09
                    s0.24-0.6,0.43-0.83s0.43-0.4,0.72-0.53s0.63-0.19,1.01-0.19c0.37,0,0.7,0.06,0.97,0.17s0.51,0.28,0.69,0.49s0.32,0.48,0.41,0.8
                    S275.04,196.29,275.04,196.7z M274.33,196.75c0-0.29-0.03-0.55-0.08-0.8s-0.14-0.46-0.25-0.64c-0.12-0.18-0.28-0.32-0.47-0.42
                    s-0.44-0.15-0.73-0.15c-0.29,0-0.54,0.05-0.73,0.16s-0.36,0.26-0.48,0.44s-0.21,0.4-0.27,0.64c-0.05,0.24-0.08,0.5-0.08,0.77
                    c0,0.3,0.02,0.57,0.07,0.82c0.05,0.25,0.13,0.47,0.25,0.65s0.27,0.32,0.47,0.42s0.44,0.15,0.74,0.15c0.29,0,0.54-0.05,0.74-0.16
                    s0.36-0.26,0.48-0.44c0.12-0.19,0.21-0.4,0.26-0.65C274.3,197.28,274.33,197.02,274.33,196.75z"/>
                <path class="st1" d="M280.63,199.01c0,0.05-0.01,0.1-0.03,0.13s-0.04,0.07-0.07,0.09s-0.06,0.04-0.1,0.05s-0.07,0.02-0.1,0.02
                    h-0.22c-0.07,0-0.13-0.01-0.18-0.02c-0.05-0.01-0.1-0.04-0.15-0.08c-0.05-0.04-0.09-0.09-0.14-0.15
                    c-0.05-0.06-0.1-0.15-0.15-0.25l-1.54-2.88c-0.08-0.15-0.16-0.3-0.24-0.47s-0.16-0.32-0.23-0.47h-0.01
                    c0.01,0.19,0.01,0.38,0.01,0.57s0,0.39,0,0.58v3.05c0,0.02-0.01,0.04-0.02,0.05c-0.01,0.02-0.03,0.03-0.06,0.04
                    c-0.03,0.01-0.06,0.02-0.1,0.02s-0.1,0.01-0.16,0.01s-0.12,0-0.16-0.01c-0.04-0.01-0.08-0.01-0.1-0.02
                    c-0.02-0.01-0.04-0.02-0.05-0.04c-0.01-0.02-0.02-0.03-0.02-0.05v-4.66c0-0.1,0.03-0.18,0.09-0.22c0.06-0.04,0.12-0.07,0.19-0.07
                    h0.33c0.08,0,0.14,0.01,0.2,0.02c0.05,0.01,0.1,0.03,0.14,0.06c0.04,0.03,0.08,0.07,0.12,0.12s0.08,0.12,0.12,0.2l1.19,2.22
                    c0.07,0.14,0.14,0.27,0.21,0.4s0.13,0.26,0.2,0.38s0.13,0.25,0.19,0.37s0.12,0.24,0.18,0.37h0c-0.01-0.21-0.01-0.42-0.01-0.64
                    s0-0.44,0-0.64v-2.74c0-0.02,0.01-0.04,0.02-0.05c0.01-0.02,0.03-0.03,0.06-0.04c0.03-0.01,0.06-0.02,0.1-0.03
                    s0.1-0.01,0.17-0.01c0.06,0,0.11,0,0.16,0.01s0.08,0.01,0.1,0.03c0.02,0.01,0.04,0.03,0.05,0.04c0.01,0.02,0.02,0.03,0.02,0.05
                    V199.01z"/>
                <path class="st1" d="M284.74,199.17c-0.01,0.03-0.02,0.05-0.04,0.07s-0.04,0.03-0.08,0.04s-0.07,0.02-0.12,0.02
                    s-0.11,0.01-0.19,0.01c-0.06,0-0.11,0-0.15,0s-0.08,0-0.11-0.01s-0.06-0.01-0.08-0.02s-0.04-0.02-0.06-0.03s-0.03-0.02-0.04-0.04
                    s-0.02-0.03-0.03-0.05l-1.65-4.7c-0.02-0.06-0.03-0.1-0.03-0.14s0.01-0.06,0.03-0.08s0.06-0.03,0.11-0.04s0.12-0.01,0.21-0.01
                    c0.07,0,0.13,0,0.17,0.01s0.08,0.01,0.1,0.02s0.04,0.02,0.05,0.04s0.02,0.04,0.03,0.06l1.45,4.25h0l1.41-4.25
                    c0.01-0.03,0.02-0.05,0.03-0.07s0.03-0.03,0.05-0.04s0.06-0.02,0.11-0.02s0.11-0.01,0.19-0.01c0.08,0,0.14,0,0.19,0.01
                    s0.08,0.02,0.1,0.04s0.02,0.04,0.02,0.08s-0.02,0.08-0.04,0.14L284.74,199.17z"/>
                <path class="st1" d="M290.77,199.01c0,0.05,0,0.09-0.01,0.12s-0.01,0.06-0.03,0.09s-0.03,0.04-0.04,0.05s-0.04,0.02-0.06,0.02
                    h-2.43c-0.06,0-0.12-0.02-0.17-0.06s-0.08-0.11-0.08-0.21v-4.51c0-0.1,0.03-0.17,0.08-0.21s0.11-0.06,0.17-0.06h2.4
                    c0.02,0,0.04,0.01,0.06,0.02s0.03,0.03,0.04,0.05s0.02,0.05,0.03,0.09s0.01,0.08,0.01,0.13c0,0.05,0,0.09-0.01,0.12
                    s-0.02,0.06-0.03,0.09s-0.02,0.04-0.04,0.05s-0.04,0.02-0.06,0.02h-1.98v1.59h1.7c0.02,0,0.04,0.01,0.06,0.02
                    s0.03,0.03,0.04,0.05s0.02,0.05,0.03,0.09s0.01,0.08,0.01,0.13c0,0.05,0,0.09-0.01,0.12s-0.01,0.06-0.03,0.08
                    s-0.03,0.04-0.04,0.04s-0.04,0.01-0.06,0.01h-1.7v1.81h2c0.02,0,0.04,0.01,0.06,0.02s0.03,0.03,0.04,0.05s0.02,0.05,0.03,0.09
                    S290.77,198.96,290.77,199.01z"/>
                <path class="st1" d="M294.3,197.32v1.86c0,0.02-0.01,0.04-0.02,0.05s-0.03,0.03-0.05,0.04s-0.06,0.02-0.1,0.02
                    s-0.1,0.01-0.16,0.01c-0.06,0-0.12,0-0.16-0.01c-0.04-0.01-0.08-0.01-0.1-0.02s-0.05-0.02-0.06-0.04
                    c-0.01-0.02-0.02-0.03-0.02-0.05v-1.86l-1.43-2.85c-0.03-0.06-0.05-0.11-0.05-0.14s0-0.06,0.02-0.08s0.05-0.03,0.11-0.04
                    s0.12-0.01,0.21-0.01c0.08,0,0.14,0,0.19,0.01s0.09,0.01,0.12,0.02s0.05,0.02,0.06,0.04s0.03,0.04,0.04,0.06l0.7,1.45
                    c0.06,0.14,0.13,0.28,0.19,0.43c0.06,0.15,0.13,0.3,0.2,0.46h0.01c0.06-0.15,0.12-0.3,0.18-0.44c0.06-0.15,0.13-0.29,0.19-0.44
                    l0.7-1.46c0.01-0.03,0.02-0.05,0.03-0.07s0.03-0.03,0.06-0.04s0.06-0.02,0.1-0.02s0.1-0.01,0.17-0.01c0.09,0,0.17,0,0.22,0.01
                    s0.09,0.02,0.11,0.04s0.03,0.04,0.02,0.08s-0.02,0.08-0.05,0.14L294.3,197.32z"/>
                <path class="st1" d="M300.73,199.05c0.02,0.06,0.03,0.1,0.03,0.14s-0.01,0.06-0.03,0.08s-0.06,0.03-0.1,0.04
                    s-0.11,0.01-0.19,0.01s-0.15,0-0.19-0.01s-0.08-0.01-0.11-0.02s-0.04-0.02-0.05-0.04s-0.02-0.04-0.03-0.06l-0.43-1.23h-2.1
                    l-0.41,1.21c-0.01,0.02-0.02,0.04-0.03,0.06s-0.03,0.03-0.06,0.04s-0.06,0.02-0.11,0.03s-0.1,0.01-0.18,0.01
                    c-0.08,0-0.14,0-0.19-0.01s-0.08-0.02-0.1-0.04s-0.03-0.04-0.03-0.08s0.01-0.08,0.03-0.14l1.7-4.7c0.01-0.03,0.02-0.05,0.04-0.07
                    s0.04-0.03,0.07-0.04s0.07-0.02,0.12-0.02s0.12-0.01,0.19-0.01c0.08,0,0.15,0,0.21,0.01s0.1,0.01,0.13,0.02s0.06,0.03,0.08,0.04
                    s0.03,0.04,0.04,0.07L300.73,199.05z M298.55,194.9L298.55,194.9l-0.88,2.52h1.76L298.55,194.9z"/>
                <path class="st1" d="M306.12,199.01c0,0.05-0.01,0.1-0.03,0.13s-0.04,0.07-0.07,0.09s-0.06,0.04-0.1,0.05s-0.07,0.02-0.1,0.02
                    h-0.22c-0.07,0-0.13-0.01-0.18-0.02c-0.05-0.01-0.1-0.04-0.15-0.08c-0.05-0.04-0.09-0.09-0.14-0.15
                    c-0.05-0.06-0.1-0.15-0.15-0.25l-1.54-2.88c-0.08-0.15-0.16-0.3-0.24-0.47s-0.16-0.32-0.23-0.47h-0.01
                    c0.01,0.19,0.01,0.38,0.01,0.57s0,0.39,0,0.58v3.05c0,0.02-0.01,0.04-0.02,0.05c-0.01,0.02-0.03,0.03-0.06,0.04
                    c-0.03,0.01-0.06,0.02-0.1,0.02s-0.1,0.01-0.16,0.01s-0.12,0-0.16-0.01c-0.04-0.01-0.08-0.01-0.1-0.02
                    c-0.02-0.01-0.04-0.02-0.05-0.04c-0.01-0.02-0.02-0.03-0.02-0.05v-4.66c0-0.1,0.03-0.18,0.09-0.22c0.06-0.04,0.12-0.07,0.19-0.07
                    h0.33c0.08,0,0.14,0.01,0.2,0.02c0.05,0.01,0.1,0.03,0.14,0.06c0.04,0.03,0.08,0.07,0.12,0.12s0.08,0.12,0.12,0.2l1.19,2.22
                    c0.07,0.14,0.14,0.27,0.21,0.4s0.13,0.26,0.2,0.38s0.13,0.25,0.19,0.37s0.12,0.24,0.18,0.37h0c-0.01-0.21-0.01-0.42-0.01-0.64
                    s0-0.44,0-0.64v-2.74c0-0.02,0.01-0.04,0.02-0.05c0.01-0.02,0.03-0.03,0.06-0.04c0.03-0.01,0.06-0.02,0.1-0.03
                    s0.1-0.01,0.17-0.01c0.06,0,0.11,0,0.16,0.01s0.08,0.01,0.1,0.03c0.02,0.01,0.04,0.03,0.05,0.04c0.01,0.02,0.02,0.03,0.02,0.05
                    V199.01z"/>
                <path class="st1" d="M311.53,198.57c0,0.04,0,0.08,0,0.11s-0.01,0.06-0.01,0.08s-0.02,0.04-0.03,0.06s-0.03,0.04-0.05,0.07
                    s-0.08,0.07-0.16,0.12s-0.19,0.11-0.31,0.16s-0.27,0.09-0.43,0.13s-0.34,0.05-0.53,0.05c-0.33,0-0.62-0.05-0.89-0.16
                    s-0.49-0.27-0.68-0.48s-0.33-0.48-0.43-0.79s-0.15-0.68-0.15-1.08c0-0.42,0.05-0.79,0.16-1.12s0.26-0.61,0.46-0.83
                    s0.43-0.4,0.7-0.52s0.57-0.18,0.9-0.18c0.15,0,0.29,0.01,0.43,0.04s0.27,0.06,0.38,0.1s0.22,0.09,0.31,0.14s0.15,0.1,0.19,0.13
                    s0.06,0.06,0.07,0.08s0.02,0.04,0.03,0.06s0.01,0.05,0.02,0.09s0.01,0.07,0.01,0.12c0,0.05,0,0.1-0.01,0.13s-0.01,0.07-0.02,0.09
                    c-0.01,0.02-0.02,0.04-0.04,0.05c-0.01,0.01-0.03,0.02-0.05,0.02c-0.04,0-0.09-0.03-0.15-0.08s-0.15-0.11-0.25-0.17
                    s-0.23-0.12-0.38-0.17s-0.33-0.08-0.53-0.08c-0.23,0-0.43,0.04-0.61,0.13s-0.34,0.22-0.47,0.4s-0.23,0.39-0.3,0.64
                    c-0.07,0.25-0.11,0.54-0.11,0.86c0,0.32,0.03,0.6,0.1,0.85s0.17,0.45,0.3,0.62c0.13,0.17,0.29,0.29,0.48,0.38s0.4,0.13,0.64,0.13
                    c0.2,0,0.38-0.02,0.53-0.07s0.28-0.1,0.38-0.17s0.19-0.12,0.26-0.17s0.12-0.07,0.16-0.07c0.02,0,0.03,0,0.05,0.01
                    c0.01,0.01,0.02,0.02,0.03,0.04s0.01,0.05,0.02,0.09S311.53,198.51,311.53,198.57z"/>
                <path class="st1" d="M315.95,199.01c0,0.05,0,0.09-0.01,0.12s-0.01,0.06-0.03,0.09s-0.03,0.04-0.04,0.05s-0.04,0.02-0.06,0.02
                    h-2.43c-0.06,0-0.12-0.02-0.17-0.06s-0.08-0.11-0.08-0.21v-4.51c0-0.1,0.03-0.17,0.08-0.21s0.11-0.06,0.17-0.06h2.4
                    c0.02,0,0.04,0.01,0.06,0.02s0.03,0.03,0.04,0.05s0.02,0.05,0.03,0.09s0.01,0.08,0.01,0.13c0,0.05,0,0.09-0.01,0.12
                    s-0.02,0.06-0.03,0.09s-0.02,0.04-0.04,0.05s-0.04,0.02-0.06,0.02h-1.98v1.59h1.7c0.02,0,0.04,0.01,0.06,0.02
                    s0.03,0.03,0.04,0.05s0.02,0.05,0.03,0.09s0.01,0.08,0.01,0.13c0,0.05,0,0.09-0.01,0.12s-0.01,0.06-0.03,0.08
                    s-0.03,0.04-0.04,0.04s-0.04,0.01-0.06,0.01h-1.7v1.81h2c0.02,0,0.04,0.01,0.06,0.02s0.03,0.03,0.04,0.05s0.02,0.05,0.03,0.09
                    S315.95,198.96,315.95,199.01z"/>
                <path class="st1" d="M321.01,199.19c0,0.02,0,0.04-0.01,0.05s-0.02,0.03-0.05,0.04s-0.06,0.02-0.11,0.02s-0.11,0.01-0.19,0.01
                    c-0.07,0-0.12,0-0.17-0.01s-0.08-0.01-0.1-0.03s-0.05-0.03-0.06-0.05s-0.03-0.05-0.04-0.08l-0.46-1.19
                    c-0.05-0.14-0.11-0.26-0.17-0.37s-0.13-0.21-0.21-0.29s-0.18-0.15-0.29-0.19s-0.24-0.07-0.39-0.07h-0.45v2.15
                    c0,0.02-0.01,0.04-0.02,0.05s-0.03,0.03-0.05,0.04s-0.06,0.02-0.1,0.02s-0.1,0.01-0.16,0.01s-0.12,0-0.16-0.01
                    s-0.08-0.01-0.1-0.02s-0.04-0.02-0.05-0.04s-0.02-0.03-0.02-0.05v-4.68c0-0.1,0.03-0.17,0.08-0.21s0.11-0.06,0.17-0.06h1.07
                    c0.13,0,0.23,0,0.32,0.01s0.16,0.01,0.23,0.02c0.2,0.03,0.37,0.09,0.52,0.16s0.28,0.17,0.38,0.28s0.18,0.24,0.23,0.38
                    s0.08,0.3,0.08,0.48c0,0.17-0.02,0.32-0.07,0.46s-0.11,0.25-0.2,0.36s-0.19,0.19-0.31,0.27s-0.25,0.14-0.4,0.19
                    c0.08,0.04,0.16,0.08,0.23,0.14s0.13,0.12,0.19,0.2s0.11,0.17,0.17,0.27s0.1,0.22,0.16,0.34l0.45,1.11
                    c0.04,0.09,0.06,0.16,0.07,0.2S321.01,199.16,321.01,199.19z M320,195.63c0-0.2-0.04-0.37-0.13-0.5s-0.24-0.23-0.45-0.29
                    c-0.06-0.02-0.14-0.03-0.22-0.04s-0.19-0.01-0.32-0.01h-0.57v1.7h0.66c0.18,0,0.33-0.02,0.46-0.06s0.24-0.1,0.32-0.18
                    s0.15-0.17,0.19-0.27S320,195.76,320,195.63z"/>
                <path class="st1" d="M325.5,197.87c0,0.24-0.04,0.45-0.13,0.63s-0.21,0.34-0.36,0.47s-0.34,0.23-0.55,0.29s-0.44,0.1-0.68,0.1
                    c-0.17,0-0.33-0.01-0.47-0.04s-0.27-0.06-0.39-0.11s-0.21-0.08-0.29-0.13s-0.13-0.08-0.16-0.11s-0.05-0.07-0.07-0.12
                    s-0.02-0.11-0.02-0.19c0-0.06,0-0.1,0.01-0.14s0.01-0.07,0.02-0.09s0.02-0.04,0.04-0.05s0.03-0.01,0.05-0.01
                    c0.04,0,0.09,0.02,0.15,0.07s0.15,0.09,0.26,0.14s0.23,0.1,0.38,0.15s0.32,0.07,0.51,0.07c0.15,0,0.28-0.02,0.4-0.06
                    s0.23-0.09,0.31-0.17s0.15-0.16,0.2-0.26s0.07-0.22,0.07-0.36c0-0.14-0.03-0.27-0.1-0.37s-0.15-0.19-0.26-0.27
                    s-0.23-0.15-0.37-0.21s-0.28-0.13-0.42-0.2s-0.28-0.14-0.42-0.22s-0.26-0.18-0.36-0.29s-0.19-0.24-0.26-0.38s-0.1-0.32-0.1-0.53
                    c0-0.21,0.04-0.4,0.12-0.56s0.18-0.3,0.32-0.42s0.3-0.2,0.49-0.26s0.39-0.09,0.61-0.09c0.11,0,0.22,0.01,0.34,0.03
                    s0.22,0.05,0.32,0.08s0.19,0.07,0.27,0.11s0.13,0.07,0.15,0.1s0.04,0.04,0.05,0.06s0.01,0.03,0.02,0.05s0.01,0.05,0.01,0.08
                    s0,0.07,0,0.12c0,0.05,0,0.09-0.01,0.12s-0.01,0.07-0.02,0.09s-0.02,0.04-0.03,0.05s-0.03,0.02-0.05,0.02
                    c-0.03,0-0.07-0.02-0.13-0.05s-0.14-0.08-0.22-0.12s-0.19-0.09-0.31-0.12s-0.26-0.06-0.41-0.06c-0.14,0-0.26,0.02-0.37,0.06
                    s-0.19,0.09-0.26,0.15s-0.12,0.14-0.15,0.22s-0.05,0.18-0.05,0.27c0,0.14,0.03,0.26,0.1,0.36s0.15,0.19,0.26,0.27
                    s0.23,0.15,0.37,0.21s0.28,0.13,0.42,0.2s0.28,0.14,0.42,0.22s0.26,0.17,0.37,0.28s0.2,0.24,0.26,0.38S325.5,197.67,325.5,197.87
                    z"/>
            </g>
            <polygon class="st2" points="327.53,196.45 351.41,197.35 327.53,198.25 		"/>
            <polygon class="st2" points="216.09,198.25 193.27,197.35 216.09,196.45 		"/>
    
        </g>
    </switch>
    </svg>