<?xml version="1.0" encoding="utf-8"?>
<!-- Generator: Adobe Illustrator 24.3.0, SVG Export Plug-In . SVG Version: 6.00 Build 0)  -->
<!DOCTYPE svg PUBLIC "-//W3C//DTD SVG 1.1//EN" "http://www.w3.org/Graphics/SVG/1.1/DTD/svg11.dtd" [
	<!ENTITY ns_extend "http://ns.adobe.com/Extensibility/1.0/">
	<!ENTITY ns_ai "http://ns.adobe.com/AdobeIllustrator/10.0/">
	<!ENTITY ns_graphs "http://ns.adobe.com/Graphs/1.0/">
	<!ENTITY ns_vars "http://ns.adobe.com/Variables/1.0/">
	<!ENTITY ns_imrep "http://ns.adobe.com/ImageReplacement/1.0/">
	<!ENTITY ns_sfw "http://ns.adobe.com/SaveForWeb/1.0/">
	<!ENTITY ns_custom "http://ns.adobe.com/GenericCustomNamespace/1.0/">
	<!ENTITY ns_adobe_xpath "http://ns.adobe.com/XPath/1.0/">
]>
<svg version="1.1" id="Layer_1" xmlns:x="&ns_extend;" xmlns:i="&ns_ai;" xmlns:graph="&ns_graphs;"
	 xmlns="http://www.w3.org/2000/svg" xmlns:xlink="http://www.w3.org/1999/xlink" x="0px" y="0px" viewBox="190 145 166 50"
	 xml:space="preserve">
<style type="text/css">
	.st1{fill:#FFFFFF;}
	.st2{fill:#D5B26E;}
	.st3{font-family:'MyriadPro-Regular';}
	.st4{font-size:12px;}
	.st5{fill:#FFFFFF;stroke:#000000;stroke-miterlimit:10;}
</style>
<switch>
	<g i:extraneous="self">
		<g>
			<path class="st1" d="M201.07,169.52V150.9h-3.17v-0.77h11.04c1.44,0,2.63,0.12,3.55,0.38c0.93,0.25,1.73,0.77,2.4,1.56
				c0.67,0.79,1.01,1.69,1.01,2.71c0,1.27-0.49,2.3-1.47,3.1c-0.98,0.79-2.64,1.39-4.99,1.79v0.08c1.68,0.33,3.06,0.97,4.14,1.92
				c1.08,0.95,1.62,2.56,1.62,4.84c0,1.3,0.15,2.14,0.46,2.5c0.3,0.37,0.73,0.55,1.27,0.55c0.35,0,0.77-0.07,1.26-0.21v0.74
				c-0.87,0.3-1.71,0.45-2.52,0.45c-1.65,0-2.82-0.46-3.5-1.38c-0.68-0.92-1.01-1.82-0.99-2.7l0.06-2.55c0-0.89-0.28-1.77-0.85-2.64
				c-0.57-0.87-1.85-1.3-3.85-1.3h-1.88v9.57h3.17v0.77h-9.92v-0.77H201.07z M204.65,150.9v8.34h2.7c1.16,0,2.05-0.08,2.66-0.23
				c0.61-0.15,1.1-0.56,1.46-1.22s0.55-1.7,0.55-3.13c0-1.17-0.19-2.03-0.56-2.57c-0.37-0.54-0.82-0.87-1.34-1
				c-0.53-0.12-1.21-0.19-2.07-0.19H204.65z"/>
			<path class="st1" d="M261.03,150.9v19.85h-0.62l-13.27-19.94h-0.06v18.71h3.41v0.77h-7.17v-0.77h2.99V150.9h-3.2v-0.77h7.69
				l9.39,14.12h0.06V150.9h-3.34v-0.77h7.15v0.77H261.03z"/>
			<path class="st1" d="M269.79,169.52V150.9h-3.14v-0.77h9.51c2.1,0,3.9,0.3,5.4,0.89c1.5,0.6,2.75,1.76,3.75,3.5
				c1,1.74,1.5,3.62,1.5,5.66c0,2.15-0.55,4.08-1.65,5.77c-1.1,1.69-2.37,2.84-3.81,3.43c-1.44,0.6-3.19,0.89-5.25,0.89h-9.45v-0.77
				H269.79z M273.36,150.9v18.62h2.62c1.37,0,2.49-0.13,3.36-0.38c0.87-0.25,1.58-0.8,2.15-1.64c0.57-0.84,0.95-1.91,1.15-3.2
				c0.2-1.29,0.3-2.98,0.3-5.06c0-2.5-0.32-4.37-0.95-5.6c-0.64-1.23-1.42-2-2.34-2.29s-2.12-0.44-3.61-0.44H273.36z"/>
			<path class="st1" d="M298.98,164h-6.4l-2.06,5.51h3.73v0.77h-7.3v-0.77h2.78l7.35-19.85h0.47l7.05,19.85h2.71v0.77h-9.6v-0.77
				h3.26L298.98,164z M292.87,163.24h5.85l-2.84-8.07h-0.06L292.87,163.24z"/>
			<path class="st1" d="M316.13,150.9v18.62h4.52c0.87,0,1.56-0.07,2.06-0.2c0.5-0.13,0.99-0.45,1.48-0.95
				c0.49-0.5,0.86-1.1,1.13-1.79c0.27-0.69,0.55-1.65,0.85-2.89h0.71l-0.56,6.58h-16.93v-0.77h3.17V150.9h-3.17v-0.77h10.1v0.77
				H316.13z"/>
			<path class="st1" d="M336.01,150.9v18.62h4.52c0.87,0,1.56-0.07,2.06-0.2c0.5-0.13,0.99-0.45,1.48-0.95
				c0.49-0.5,0.86-1.1,1.13-1.79c0.27-0.69,0.55-1.65,0.85-2.89h0.71l-0.56,6.58h-16.93v-0.77h3.17V150.9h-3.17v-0.77h10.1v0.77
				H336.01z"/>
		</g>
		<g>
			<path class="st1" d="M205.18,178.29l2.22,3.57c0.03,0.08,0.13,0.25,0.3,0.5c0.8-1.09,1.28-2.59,1.44-4.48h-1.85v-0.5h3.76v0.5
				h-1.46c-0.13,2.05-0.67,3.67-1.61,4.87l1.54,2.16h1.41v0.49h-3.81c-0.28-0.4-0.53-0.74-0.76-1.02c-1.09,0.88-2.31,1.31-3.65,1.31
				c-1.33,0-2.37-0.35-3.11-1.06c-0.74-0.71-1.11-1.56-1.11-2.56c0-0.94,0.33-1.78,0.99-2.53c0.66-0.75,1.6-1.31,2.82-1.69
				c-0.73-1.25-1.09-2.21-1.09-2.87c0-0.69,0.3-1.3,0.9-1.82c0.6-0.52,1.34-0.78,2.24-0.78c0.87,0,1.63,0.21,2.26,0.63
				c0.63,0.42,0.95,0.97,0.95,1.65c0,0.56-0.21,1.05-0.63,1.47c-0.42,0.42-1.18,0.83-2.26,1.24L205.18,178.29z M202.54,178.27
				c-1.35,0.51-2.02,1.22-2.02,2.14c0,0.85,0.34,1.82,1.02,2.92c0.68,1.09,1.47,1.64,2.36,1.64c0.69,0,1.44-0.33,2.24-0.98
				C204.73,181.94,203.53,180.04,202.54,178.27z M204.42,176.99c0.61-0.25,1.01-0.55,1.2-0.89s0.28-0.81,0.28-1.4
				c0-1.21-0.51-1.81-1.52-1.81c-0.39,0-0.71,0.1-0.96,0.31c-0.25,0.21-0.38,0.47-0.38,0.79
				C203.05,174.55,203.51,175.55,204.42,176.99z"/>
			<path class="st1" d="M253.67,172.39l0.06,3.34h-0.45c-0.63-2-1.75-3-3.35-3c-0.89,0-1.57,0.25-2.06,0.74
				c-0.49,0.5-0.74,1.01-0.74,1.54c0,0.49,0.2,0.91,0.61,1.26s1.15,0.61,2.24,0.8c1.08,0.19,1.91,0.42,2.47,0.69
				c0.57,0.27,1.04,0.72,1.43,1.36c0.39,0.63,0.58,1.36,0.58,2.18c0,1.26-0.41,2.31-1.22,3.15c-0.81,0.84-1.82,1.26-3.02,1.26
				c-0.98,0-1.96-0.37-2.93-1.1l-0.89,0.81h-0.33v-3.6h0.41c0.37,1.13,0.9,1.98,1.57,2.55s1.4,0.85,2.2,0.85
				c0.79,0,1.52-0.26,2.18-0.79c0.66-0.53,0.99-1.19,0.99-2c0-0.68-0.23-1.25-0.69-1.71c-0.46-0.46-1.2-0.78-2.23-0.96
				s-1.82-0.38-2.37-0.61c-0.55-0.23-1.02-0.64-1.41-1.22c-0.39-0.58-0.59-1.22-0.59-1.92c0-0.97,0.34-1.84,1.03-2.6
				c0.68-0.76,1.61-1.15,2.78-1.15c0.98,0,1.9,0.31,2.74,0.94c0.23-0.22,0.44-0.49,0.61-0.79H253.67z"/>
			<path class="st1" d="M264.2,172.39l0.06,3.34h-0.45c-0.63-2-1.75-3-3.35-3c-0.89,0-1.57,0.25-2.06,0.74
				c-0.49,0.5-0.74,1.01-0.74,1.54c0,0.49,0.2,0.91,0.61,1.26s1.15,0.61,2.24,0.8c1.08,0.19,1.91,0.42,2.47,0.69
				c0.57,0.27,1.04,0.72,1.43,1.36c0.39,0.63,0.58,1.36,0.58,2.18c0,1.26-0.41,2.31-1.22,3.15c-0.81,0.84-1.82,1.26-3.02,1.26
				c-0.98,0-1.96-0.37-2.93-1.1l-0.89,0.81h-0.33v-3.6h0.41c0.37,1.13,0.9,1.98,1.57,2.55s1.4,0.85,2.2,0.85
				c0.79,0,1.52-0.26,2.18-0.79c0.66-0.53,0.99-1.19,0.99-2c0-0.68-0.23-1.25-0.69-1.71c-0.46-0.46-1.2-0.78-2.23-0.96
				s-1.82-0.38-2.37-0.61c-0.55-0.23-1.02-0.64-1.41-1.22c-0.39-0.58-0.59-1.22-0.59-1.92c0-0.97,0.34-1.84,1.03-2.6
				c0.68-0.76,1.61-1.15,2.78-1.15c0.98,0,1.9,0.31,2.74,0.94c0.23-0.22,0.44-0.49,0.61-0.79H264.2z"/>
			<path class="st1" d="M272.87,185.7c-1.65,0-3.04-0.7-4.19-2.09c-1.15-1.39-1.72-2.88-1.72-4.47c0-1.91,0.6-3.53,1.81-4.88
				s2.61-2.02,4.2-2.02c1.5,0,2.84,0.68,4.03,2.05c1.19,1.37,1.78,2.92,1.78,4.66c0,1.79-0.6,3.36-1.79,4.71
				C275.8,185.02,274.43,185.7,272.87,185.7z M272.91,172.73c-0.7,0-1.32,0.16-1.88,0.48s-0.93,0.88-1.13,1.68
				c-0.2,0.8-0.3,2.19-0.3,4.18c0,1.38,0.06,2.47,0.17,3.29c0.11,0.82,0.4,1.5,0.87,2.03c0.46,0.54,1.19,0.81,2.19,0.81
				c0.61,0,1.22-0.16,1.83-0.49s1.01-0.97,1.2-1.92c0.19-0.96,0.28-2.43,0.28-4.41c0-1.8-0.12-3.04-0.35-3.72
				c-0.23-0.68-0.6-1.18-1.11-1.48C274.17,172.88,273.58,172.73,272.91,172.73z"/>
			<path class="st1" d="M290.05,172.39v3.82h-0.41c-0.44-2.32-1.59-3.48-3.44-3.48c-0.99,0-1.72,0.39-2.17,1.18
				c-0.46,0.79-0.68,2.44-0.68,4.97c0,2.08,0.1,3.49,0.29,4.24s0.54,1.28,1.02,1.61c0.48,0.32,1.02,0.48,1.6,0.48
				c0.76,0,1.47-0.29,2.14-0.87c0.67-0.58,1.18-1.51,1.55-2.79h0.45l-0.15,3.92h-0.39c-0.15-0.41-0.37-0.75-0.68-1.04
				c-1,0.84-2.03,1.26-3.08,1.26c-1.34,0-2.57-0.64-3.67-1.93c-1.11-1.29-1.66-2.86-1.66-4.72c0-1.9,0.54-3.51,1.63-4.83
				c1.09-1.32,2.35-1.98,3.78-1.98c1.1,0,2.07,0.4,2.91,1.2c0.25-0.4,0.43-0.74,0.56-1.05H290.05z"/>
			<path class="st1" d="M294.31,184.91v-11.88h-2.08v-0.49h6.44v0.49h-2.1v11.88h2.1v0.49h-6.44v-0.49H294.31z"/>
			<path class="st1" d="M307.74,181.39h-4.04l-1.3,3.52h2.35v0.49h-4.61v-0.49h1.76l4.64-12.67h0.29l4.45,12.67h1.71v0.49h-6.07
				v-0.49h2.06L307.74,181.39z M303.88,180.9h3.69l-1.79-5.15h-0.04L303.88,180.9z"/>
			<path class="st1" d="M313.13,172.54h10.85l0.33,4.37h-0.48c-0.3-1.46-0.69-2.48-1.18-3.04c-0.49-0.56-1.13-0.84-1.93-0.84h-1.04
				v11.88h2.28v0.49h-6.81v-0.49h2.28v-11.88h-1.04c-0.8,0-1.44,0.28-1.93,0.84c-0.49,0.56-0.88,1.58-1.18,3.04h-0.48L313.13,172.54
				z"/>
			<path class="st1" d="M330.15,173.03v5.52h1.15c0.4,0,0.75-0.04,1.03-0.12c0.28-0.08,0.54-0.3,0.76-0.65
				c0.22-0.35,0.35-0.9,0.38-1.65h0.49v5.45h-0.49c-0.05-1.04-0.25-1.72-0.59-2.05c-0.34-0.33-0.87-0.49-1.58-0.49h-1.15v5.88h2.59
				c1.47,0,2.49-0.31,3.05-0.94s0.9-1.58,1.01-2.88h0.48l-0.12,4.31h-11.29v-0.49h2.02v-11.88h-2.02v-0.49h10.82l0.22,3.43h-0.48
				c-0.16-1.04-0.5-1.79-1.02-2.25s-1.37-0.69-2.56-0.69H330.15z"/>
			<path class="st1" d="M347.15,172.39l0.06,3.34h-0.45c-0.63-2-1.75-3-3.35-3c-0.89,0-1.57,0.25-2.06,0.74
				c-0.49,0.5-0.74,1.01-0.74,1.54c0,0.49,0.2,0.91,0.61,1.26s1.15,0.61,2.24,0.8c1.08,0.19,1.91,0.42,2.47,0.69
				c0.57,0.27,1.04,0.72,1.43,1.36c0.39,0.63,0.58,1.36,0.58,2.18c0,1.26-0.41,2.31-1.22,3.15c-0.81,0.84-1.82,1.26-3.02,1.26
				c-0.98,0-1.96-0.37-2.93-1.1l-0.89,0.81h-0.33v-3.6h0.41c0.37,1.13,0.9,1.98,1.57,2.55s1.4,0.85,2.2,0.85
				c0.79,0,1.52-0.26,2.18-0.79c0.66-0.53,0.99-1.19,0.99-2c0-0.68-0.23-1.25-0.69-1.71c-0.46-0.46-1.2-0.78-2.23-0.96
				s-1.82-0.38-2.37-0.61c-0.55-0.23-1.02-0.64-1.41-1.22c-0.39-0.58-0.59-1.22-0.59-1.92c0-0.97,0.34-1.84,1.03-2.6
				c0.68-0.76,1.61-1.15,2.78-1.15c0.98,0,1.9,0.31,2.74,0.94c0.23-0.22,0.44-0.49,0.61-0.79H347.15z"/>
		</g>
		<g>
			<path class="st2" d="M233.18,178.17h-12.54l-4.03,10.8h7.3v1.5H209.6v-1.5h5.45l14.39-38.89h0.91l13.81,38.89h5.3v1.5h-18.81
				v-1.5h6.39L233.18,178.17z M221.2,176.67h11.45l-5.56-15.81h-0.12L221.2,176.67z"/>
		</g>
	</g>
</switch>
</svg>
